<?xml version="1.0" standalone="no"?>
<!DOCTYPE svg PUBLIC "-//W3C//DTD SVG 20010904//EN"
 "http://www.w3.org/TR/2001/REC-SVG-20010904/DTD/svg10.dtd">
<svg version="1.0" xmlns="http://www.w3.org/2000/svg"
 width="1024.000000pt" height="1024.000000pt" viewBox="0 0 1024.000000 1024.000000"
 preserveAspectRatio="xMidYMid meet">
<metadata>
Created by potrace 1.16, written by Peter Selinger 2001-2019
</metadata>
<g transform="translate(0.000000,1024.000000) scale(0.100000,-0.100000)"
fill="#000000" stroke="none">
<path d="M4520 9937 c-34 -17 -63 -79 -55 -116 9 -40 42 -81 66 -81 32 0 35
29 5 57 -34 31 -32 68 5 95 24 18 29 18 60 5 71 -30 126 -115 187 -289 l31
-87 -42 -19 c-75 -34 -120 -106 -111 -176 7 -59 19 -74 82 -112 1 0 -13 -25
-33 -54 -19 -28 -35 -58 -35 -66 0 -8 -2 -14 -5 -14 -2 0 -109 48 -237 106
-470 215 -822 334 -1163 394 -401 70 -790 44 -1113 -76 -205 -76 -225 -213
-55 -375 124 -119 381 -251 684 -352 340 -114 725 -114 1159 -1 200 52 288 73
300 73 22 -1 -99 -37 -336 -98 -61 -16 -155 -43 -210 -60 -54 -17 -128 -37
-164 -45 -149 -33 -302 -77 -390 -112 -109 -43 -349 -164 -397 -200 -75 -57
-52 -159 60 -264 145 -136 565 -226 889 -191 188 21 434 105 545 187 79 59
225 188 273 242 27 30 52 54 54 51 3 -4 56 -166 56 -173 0 -2 -26 -23 -57 -47
-32 -24 -77 -61 -100 -82 l-43 -40 0 -152 0 -152 -37 -66 -36 -67 -1411 -2
-1411 -3 -40 -22 c-51 -27 -89 -68 -109 -117 -14 -35 -16 -240 -16 -2138 0
-2283 -4 -2136 53 -2196 57 -61 -42 -57 1386 -60 937 -1 1308 -5 1317 -13 8
-6 30 -43 49 -81 l35 -71 0 -338 0 -339 -2105 0 c-2098 0 -2105 0 -2105 -20 0
-20 7 -20 2099 -20 1464 0 2102 -3 2106 -11 15 -24 -6 -56 -54 -82 -43 -24
-60 -27 -140 -27 l-92 0 -154 -76 c-85 -41 -169 -87 -186 -101 l-30 -26 -1775
7 -1774 8 0 -24 0 -23 1743 -5 c2449 -7 4432 -6 6442 3 952 4 1803 7 1893 7
159 0 162 0 162 21 l0 22 -1929 -8 -1929 -7 -24 22 c-12 13 -59 40 -103 61
-44 21 -113 57 -154 79 -72 39 -77 40 -170 40 -127 1 -176 11 -212 46 -38 37
-38 60 2 68 17 3 1041 6 2275 6 2237 0 2244 0 2244 20 0 20 -7 20 -2275 20
l-2275 0 0 346 0 346 30 57 c17 31 37 64 45 74 13 18 60 19 1276 18 935 -1
1272 2 1301 11 52 15 111 74 126 124 9 32 12 511 12 2130 0 2081 -1 2089 -21
2134 -25 56 -53 86 -104 113 l-40 22 -1363 3 c-1282 2 -1363 3 -1369 20 -4 9
-19 39 -35 65 -27 47 -28 52 -28 192 l0 145 -35 39 c-19 21 -67 63 -106 92
-61 47 -70 57 -65 79 3 14 11 61 17 105 12 80 12 81 -15 125 -15 25 -34 55
-43 68 -8 12 -13 22 -10 22 3 0 38 -44 78 -97 80 -108 251 -282 344 -351 113
-83 255 -143 436 -184 90 -20 131 -23 309 -23 176 0 221 3 315 23 355 75 544
201 536 359 -2 45 -51 82 -210 159 -221 108 -328 149 -514 195 -89 22 -243 62
-342 89 -99 27 -196 52 -215 55 -62 13 -342 95 -359 106 -14 9 -14 10 2 5 60
-19 499 -128 566 -140 217 -41 563 -42 766 -1 173 35 278 73 510 185 280 135
413 250 446 383 15 62 -7 124 -57 162 -70 54 -296 119 -518 150 -98 14 -465
15 -526 2 -14 -3 -47 -8 -74 -12 -295 -37 -891 -229 -1226 -396 -25 -12 -81
-37 -125 -56 -44 -19 -95 -43 -113 -53 l-33 -20 -8 23 c-5 12 -24 45 -44 74
-34 50 -34 52 -13 57 32 8 66 75 66 128 0 60 -32 106 -98 141 -61 33 -61 19
-1 172 63 160 128 239 197 239 61 0 87 -77 37 -110 -30 -20 -32 -40 -5 -54 16
-9 25 -6 44 13 50 50 42 153 -14 182 -119 62 -237 -52 -325 -315 -17 -52 -35
-94 -38 -92 -4 1 -49 2 -101 2 l-93 0 -28 83 c-90 267 -201 381 -315 324z
m-1329 -387 c340 -57 713 -169 1005 -301 269 -121 442 -203 453 -214 28 -28 3
-26 -60 4 -175 84 -476 217 -569 253 -316 121 -659 210 -980 254 -263 36 -585
-4 -873 -108 -125 -45 -130 -128 -13 -255 28 -31 82 -81 121 -111 89 -70 100
-81 50 -51 -138 82 -241 176 -274 250 -37 81 4 147 115 189 103 39 362 100
452 106 48 3 89 8 92 11 11 12 372 -8 481 -27z m4071 20 c295 -25 567 -105
611 -179 23 -39 22 -93 -4 -142 -30 -59 -135 -159 -207 -197 -71 -38 -81 -37
-21 3 65 42 170 155 195 210 49 104 23 144 -126 193 -411 136 -731 133 -1295
-13 -216 -56 -478 -145 -676 -231 -84 -37 -188 -81 -229 -99 -41 -18 -112 -50
-157 -72 -59 -28 -84 -35 -87 -27 -5 14 12 23 264 136 331 148 489 209 745
287 199 60 432 111 585 128 25 3 46 6 47 6 8 8 254 6 355 -3z m-4477 -91 l40
-41 -100 7 c-202 14 -218 13 -259 -19 -52 -39 -70 -85 -62 -158 9 -78 29 -132
72 -195 30 -44 34 -55 24 -73 -6 -12 -16 -18 -23 -14 -76 45 -192 128 -240
174 l-61 57 22 34 c50 81 205 205 292 234 41 14 135 27 235 34 13 0 37 -16 60
-40z m250 26 c412 -60 845 -186 1198 -350 43 -19 79 -35 82 -35 3 0 38 -16 78
-36 63 -32 118 -55 181 -78 10 -3 17 -9 14 -11 -2 -3 -38 6 -79 20 -41 14
-132 41 -204 61 -161 44 -287 88 -470 164 -219 91 -431 139 -545 124 -33 -4
-67 1 -128 21 -46 15 -129 35 -183 46 -102 19 -142 37 -160 70 -9 18 -5 19 53
19 35 0 108 -7 163 -15z m4075 7 c0 -15 -57 -62 -81 -67 -13 -3 -50 -10 -81
-15 -31 -6 -94 -22 -140 -36 -57 -18 -105 -26 -153 -25 -143 1 -335 -42 -515
-116 -162 -66 -323 -124 -443 -159 -170 -50 -331 -93 -336 -88 -2 2 5 7 15 10
10 4 91 38 179 77 377 163 522 216 815 301 274 78 740 153 740 118z m223 -6
c90 -12 116 -19 163 -47 71 -43 232 -193 240 -224 11 -43 -56 -106 -227 -217
-56 -36 -58 -36 -75 -17 -15 17 -16 21 -2 37 25 27 78 133 78 153 0 10 5 38
11 61 32 122 -77 236 -199 209 -26 -5 -85 -13 -131 -16 l-84 -7 32 41 c37 47
35 47 194 27z m-2329 -23 c-1 -7 -2 -55 -3 -105 l-1 -93 -35 0 -36 0 0 100
c-1 55 0 104 0 108 2 14 76 3 75 -10z m2670 -52 c113 -38 136 -53 136 -92 0
-16 -7 -44 -16 -61 -15 -29 -17 -30 -27 -12 -12 24 -132 143 -172 172 -40 29
-24 27 79 -7z m-5348 0 c-45 -30 -154 -139 -161 -161 -10 -30 -21 -24 -39 20
-29 73 14 116 138 139 33 6 62 13 64 16 3 3 10 5 16 5 6 0 -2 -9 -18 -19z
m5057 -10 c14 -5 41 -24 61 -41 31 -28 36 -38 36 -76 0 -65 -44 -73 -109 -19
-42 36 -58 88 -37 120 19 29 17 28 49 16z m-4788 -34 c18 -53 -45 -126 -119
-139 -27 -4 -42 53 -25 94 30 73 123 102 144 45z m4689 4 c-13 -65 49 -142
144 -180 41 -17 42 -42 2 -104 -16 -26 -31 -47 -33 -47 -3 0 -35 21 -73 46
-97 65 -163 96 -289 137 -132 43 -204 57 -304 58 -91 0 -84 5 94 53 119 33
239 51 400 59 33 2 61 4 62 5 1 1 0 -11 -3 -27z m-4324 -1 c63 -10 298 -77
312 -89 4 -3 -28 -4 -70 -2 -42 1 -108 -3 -147 -9 -148 -27 -385 -128 -467
-199 l-46 -41 -20 27 c-34 48 -64 115 -55 123 4 3 29 14 55 24 28 10 62 34 83
58 32 35 36 46 33 82 l-3 41 130 -3 c72 -1 159 -7 195 -12z m498 -80 c140 -25
238 -56 411 -130 161 -68 316 -119 458 -151 56 -13 101 -25 99 -27 -3 -2 -46
3 -98 12 -51 9 -195 27 -319 41 -230 26 -309 44 -409 95 -51 26 -280 170 -280
176 0 7 25 4 138 -16z m3142 3 c-100 -70 -287 -172 -385 -208 -63 -24 -219
-48 -421 -65 -66 -5 -157 -17 -203 -25 -46 -9 -85 -14 -87 -12 -3 2 48 16 111
31 132 32 298 86 530 175 196 76 348 116 455 120 l24 1 -24 -17z m-3210 -88
c30 -15 73 -40 95 -55 63 -43 162 -90 190 -90 14 0 25 -3 25 -8 0 -12 -164 4
-285 28 -67 13 -170 24 -263 27 l-154 6 4 -24 c3 -23 5 -23 138 -25 95 -1 177
-10 275 -28 113 -21 171 -26 300 -26 153 0 464 -32 710 -74 l80 -13 -45 -6
c-25 -4 -203 -9 -396 -12 -331 -6 -358 -5 -495 17 -128 20 -176 22 -426 20
l-282 -2 11 33 c5 17 12 40 15 50 3 9 0 17 -5 17 -6 0 -31 -35 -56 -77 -25
-43 -49 -85 -54 -92 -7 -13 -21 -12 -98 8 -49 13 -92 25 -96 28 -4 2 2 13 12
23 11 11 23 38 26 60 5 33 10 40 23 34 9 -4 37 -9 62 -12 43 -3 50 0 126 57
44 33 92 76 108 96 44 59 110 75 285 71 104 -2 120 -5 170 -31z m3515 15 c22
-6 53 -26 70 -44 28 -31 123 -108 183 -149 21 -14 39 -17 82 -13 53 5 56 4 68
-23 7 -16 26 -34 42 -41 62 -26 33 -46 -108 -79 l-82 -19 -43 82 c-43 83 -64
96 -60 38 l3 -32 -273 2 c-149 1 -283 -2 -296 -5 -14 -4 -61 -12 -105 -19
-123 -20 -964 -13 -944 8 4 3 223 36 328 48 25 3 99 13 165 21 65 8 192 15
282 15 119 0 189 5 265 20 177 33 265 41 364 34 90 -6 94 -6 94 14 0 18 -8 21
-86 27 -47 4 -113 4 -147 0 -34 -4 -73 -9 -87 -11 -14 -1 -79 -11 -145 -23
-171 -29 -249 -36 -241 -22 4 6 16 11 26 11 23 0 171 76 237 121 74 51 113 60
248 55 66 -3 138 -10 160 -16z m-1829 -14 c158 -73 196 -279 74 -403 -100
-101 -336 -76 -406 43 -35 60 -44 106 -34 170 9 52 56 137 88 159 92 62 188
73 278 31z m-1536 -325 l115 -17 -83 -27 c-148 -48 -254 -60 -425 -47 -82 6
-190 20 -239 31 -82 20 -88 22 -82 42 4 12 11 25 17 28 5 4 62 8 125 8 64 1
119 4 122 8 10 10 334 -8 450 -26z m1880 -23 c391 -121 550 -166 995 -278 372
-94 402 -105 635 -219 143 -70 190 -105 190 -140 0 -59 -77 -149 -162 -191
l-43 -21 30 22 c60 45 133 127 140 157 10 50 -2 70 -58 94 -28 13 -112 53
-187 89 -211 104 -434 179 -620 209 -96 16 -276 60 -455 112 -77 22 -194 55
-260 74 -241 68 -360 110 -364 129 -2 14 1 16 15 10 11 -4 75 -25 144 -47z
m1644 38 c18 0 54 -42 44 -51 -2 -3 -42 -15 -89 -27 -75 -20 -109 -22 -309
-23 -220 0 -227 1 -327 30 -57 16 -103 32 -103 36 0 3 28 9 63 13 34 3 105 13
157 21 72 11 150 13 320 8 124 -4 233 -7 244 -7z m-2391 -10 c6 -16 -43 -32
-368 -125 -115 -33 -289 -82 -386 -110 -96 -27 -225 -59 -285 -71 -131 -25
-265 -60 -379 -100 -79 -28 -448 -209 -469 -230 -6 -6 -5 -24 3 -52 10 -32 33
-63 88 -117 71 -70 73 -72 32 -50 -87 48 -159 139 -159 203 0 36 44 67 193
140 201 97 269 120 567 195 151 38 295 76 320 85 49 16 207 62 370 106 171 47
441 128 447 134 10 10 21 7 26 -8z m1577 -58 c151 -60 203 -70 387 -75 199 -6
314 5 485 48 64 16 123 29 130 28 39 -2 -241 -81 -327 -92 -245 -32 -423 -33
-615 -1 -90 14 -504 108 -544 123 -10 4 77 5 195 3 209 -4 216 -5 289 -34z
m-2105 17 c-44 -7 -145 -29 -225 -48 -200 -50 -344 -74 -485 -82 -130 -8 -331
6 -455 31 -92 19 -257 71 -265 84 -3 5 23 -1 58 -15 143 -54 387 -82 567 -66
133 12 195 27 317 75 l88 35 240 0 c231 -1 237 -1 160 -14z m1350 -85 c237
-77 603 -176 805 -216 298 -59 401 -94 487 -164 34 -27 95 -74 136 -104 76
-56 157 -139 157 -161 0 -7 -6 -18 -14 -24 -11 -10 -16 -8 -21 7 -23 76 -161
183 -340 265 -103 46 -277 101 -420 132 -44 9 -134 34 -200 55 -66 21 -169 53
-230 70 -279 80 -625 197 -625 212 0 14 13 10 265 -72z m-800 50 c-7 -11 -139
-54 -225 -74 -36 -8 -191 -56 -345 -106 -154 -50 -345 -106 -425 -126 -397
-97 -648 -209 -757 -339 -39 -47 -62 -60 -42 -24 29 55 118 134 286 256 57 42
217 93 416 133 210 43 291 65 912 247 66 19 131 38 145 43 27 8 43 4 35 -10z
m573 -62 c27 -24 91 -77 142 -118 114 -92 232 -222 310 -341 67 -101 109 -158
154 -207 l31 -34 -55 32 c-182 106 -316 245 -520 540 -19 28 -54 77 -78 110
-23 33 -40 60 -37 60 2 0 26 -19 53 -42z m-518 5 c0 -5 -24 -39 -53 -78 -29
-38 -84 -115 -124 -171 -81 -114 -225 -272 -231 -254 -7 20 19 132 40 175 25
49 176 200 278 277 74 56 90 65 90 51z m-241 -47 c-2 -3 -103 -55 -224 -116
-365 -186 -429 -225 -580 -350 -85 -71 -174 -173 -219 -252 -27 -47 -29 -48
-77 -48 -35 0 -49 4 -49 14 0 36 87 182 162 272 60 72 110 118 183 171 120 87
180 117 305 154 152 44 288 87 395 123 111 38 110 38 104 32z m56 -38 c-27
-23 -89 -80 -136 -127 -95 -95 -112 -129 -128 -259 -11 -84 -26 -113 -79 -145
-48 -30 -182 -88 -182 -79 1 4 19 25 41 47 23 24 60 83 91 145 64 132 118 203
233 308 76 70 186 151 205 152 3 0 -17 -19 -45 -42z m537 -28 c15 -29 28 -54
28 -55 0 -1 -31 -8 -69 -15 -67 -12 -135 -10 -239 8 l-44 7 19 25 c11 14 25
39 32 56 l12 31 116 -2 116 -1 29 -54z m538 -1 c91 -28 219 -67 284 -86 144
-41 192 -65 317 -153 111 -80 192 -163 266 -276 44 -68 93 -163 93 -180 0 -2
-24 -4 -54 -4 l-54 0 -33 58 c-49 87 -252 285 -374 364 -128 84 -299 175 -493
262 -136 62 -185 88 -134 72 9 -3 91 -29 182 -57z m-1377 -161 c-177 -174
-205 -197 -443 -368 -63 -46 -137 -103 -165 -127 -50 -43 -83 -52 -128 -35
-15 6 -13 13 19 62 20 30 76 93 123 140 126 124 255 211 496 333 72 36 151 80
175 96 25 16 46 29 47 27 2 -1 -54 -59 -124 -128z m1495 22 c4 0 68 -34 142
-76 239 -135 369 -238 473 -377 77 -102 78 -107 17 -107 -45 0 -55 4 -102 48
-54 48 -104 86 -328 250 -81 58 -173 139 -260 227 l-135 136 93 -50 c51 -28
96 -51 100 -51z m-894 -41 c64 -11 179 -8 253 7 31 6 32 5 47 -47 23 -77 21
-85 -23 -103 -117 -46 -315 -35 -388 22 -22 17 -22 18 -6 80 12 49 19 61 32
58 9 -3 47 -10 85 -17z m-1201 -43 c-89 -60 -147 -92 -238 -130 -71 -29 -288
-131 -362 -169 -29 -15 -60 -38 -69 -52 -20 -30 -30 -31 -44 -5 -39 73 199
239 455 319 92 29 308 87 329 90 5 1 -27 -24 -71 -53z m2642 35 c199 -44 417
-133 561 -228 87 -57 131 -104 140 -151 9 -43 -9 -46 -49 -8 -40 37 -180 112
-408 216 -125 57 -329 173 -329 186 0 3 10 2 23 -1 12 -3 40 -9 62 -14z m-385
-236 c141 -101 319 -235 325 -246 9 -13 0 -12 -96 15 -187 52 -248 103 -403
346 l-48 75 64 -61 c34 -34 106 -92 158 -129z m-1770 89 c0 -3 -18 -41 -41
-84 -43 -84 -104 -149 -179 -192 -39 -23 -227 -74 -236 -65 -2 2 82 65 186
141 105 76 205 153 223 171 31 31 47 41 47 29z m2469 -104 l161 -80 0 -43 c0
-33 7 -51 29 -77 l29 -35 -42 -12 c-22 -7 -64 -13 -92 -13 l-51 0 -28 58 c-49
100 -107 195 -148 239 -22 24 -35 43 -29 43 5 0 83 -36 171 -80z m-3130 51
c-8 -10 -31 -40 -52 -67 -20 -27 -59 -92 -85 -144 -42 -85 -50 -95 -77 -98
-30 -4 -145 17 -145 25 0 3 10 18 21 35 17 23 20 40 17 77 -4 44 -3 49 21 59
14 5 87 37 161 71 74 33 139 60 144 60 5 1 2 -7 -5 -18z m1321 -57 c73 -18
239 -17 319 1 35 9 65 14 66 13 1 -2 5 -18 8 -35 6 -29 3 -35 -21 -47 -122
-63 -449 -35 -468 40 -9 35 2 58 24 49 9 -4 42 -14 72 -21z m893 -67 c91 -69
244 -140 347 -162 8 -2 53 -13 100 -24 85 -21 235 -39 365 -44 39 -2 13 -4
-57 -5 -149 -2 -241 9 -398 49 -156 40 -301 111 -377 185 -61 59 -58 59 20 1z
m-353 -70 c24 -17 61 -46 82 -65 l38 -34 0 -148 c0 -126 3 -151 18 -171 10
-13 26 -36 35 -51 l17 -28 -150 0 -150 0 6 118 c3 64 5 169 4 232 -1 63 1 134
5 157 7 49 8 49 95 -10z m-684 -23 c1 -27 2 -67 4 -89 1 -22 -2 -61 -5 -87 -4
-26 -4 -55 0 -65 4 -10 9 -66 11 -125 l4 -108 -130 0 c-82 0 -130 4 -130 10 0
6 12 28 26 50 25 38 26 44 25 182 l-2 143 38 36 c57 55 134 110 147 106 6 -2
12 -26 12 -53z m-526 -4 c-62 -33 -237 -93 -320 -109 -30 -6 -68 -13 -85 -17
-16 -3 -109 -7 -205 -9 l-175 -3 135 8 c204 11 499 77 650 144 58 26 58 17 0
-14z m657 -36 c53 -12 100 -15 213 -11 80 3 158 9 173 13 27 6 28 5 25 -27 -3
-30 -8 -35 -53 -52 -99 -38 -315 -32 -405 11 -28 14 -36 24 -38 50 -4 37 -5
37 85 16z m13 -130 c114 -24 296 -14 383 21 14 6 17 2 17 -24 0 -38 -16 -46
-137 -65 -89 -14 -163 -13 -253 5 -79 16 -110 34 -110 65 0 21 4 25 18 19 9
-4 46 -13 82 -21z m-49 -161 c64 -32 336 -30 423 3 13 5 16 -1 16 -34 0 -37
-4 -43 -32 -56 -112 -51 -286 -53 -400 -4 -47 20 -48 22 -48 64 0 24 2 44 3
44 2 0 19 -8 38 -17z m-401 -211 c0 -42 -28 -141 -56 -199 -19 -40 -42 -65
-90 -100 -68 -51 -87 -58 -92 -32 -2 10 19 32 53 58 48 37 115 112 115 130 0
3 -579 5 -1287 3 -1404 -2 -1335 1 -1361 -57 -7 -16 -11 -591 -13 -1832 l-2
-1808 36 -70 c19 -38 46 -80 60 -93 l24 -23 -18 86 c-10 47 -30 121 -44 166
-28 90 -28 89 -17 89 12 0 60 -90 78 -147 8 -26 19 -83 24 -125 5 -43 17 -89
26 -103 20 -31 7 -32 -44 -6 -47 24 -94 74 -121 128 -21 42 -51 58 -51 28 0
-49 81 -154 144 -188 l41 -22 3125 -3 c1719 -2 3144 0 3166 3 62 9 127 57 174
128 44 67 50 97 22 97 -11 0 -26 -16 -39 -43 -29 -60 -69 -105 -114 -127 -53
-28 -62 -25 -44 10 8 16 15 53 15 83 0 61 47 210 81 259 32 45 34 21 5 -70
-14 -44 -30 -111 -37 -149 -6 -37 -16 -77 -22 -88 -25 -50 36 22 79 92 l44 74
0 1820 c0 1216 -3 1827 -10 1840 -25 45 12 44 -1293 49 -680 3 -1237 2 -1237
-3 0 -20 55 -87 105 -125 55 -43 70 -72 38 -72 -32 0 -131 87 -163 142 -16 29
-37 84 -45 123 -9 38 -18 78 -21 88 -5 16 59 17 1353 15 1346 -3 1358 -3 1393
-23 19 -12 50 -42 68 -69 l32 -48 0 -2088 c0 -1779 -2 -2093 -14 -2121 -15
-36 -56 -79 -93 -98 -16 -8 -924 -11 -3405 -11 l-3384 0 -44 23 c-30 14 -53
36 -67 62 l-23 40 0 2090 0 2091 23 44 c12 24 34 53 49 63 63 46 44 46 1501
46 l1377 1 0 -28z m336 -37 c7 -33 15 -67 19 -76 6 -15 -11 -17 -143 -24 -162
-8 -197 -3 -187 23 4 10 9 42 12 72 3 30 11 58 17 63 6 4 69 6 140 5 l129 -3
13 -60z m865 -15 c9 -41 17 -76 16 -77 -5 -5 -367 -6 -372 -1 -3 3 -1 16 3 29
5 13 13 48 17 77 l7 52 155 -2 156 -3 18 -75z m-716 35 c79 -16 218 -14 284 4
50 14 56 11 47 -24 -11 -44 -62 -59 -201 -60 -146 0 -209 15 -230 56 -21 40
-19 53 8 45 12 -4 54 -13 92 -21z m-7 -117 c44 -10 231 -5 291 7 31 7 33 7 22
-14 -19 -35 -77 -53 -171 -55 -123 -2 -220 30 -220 72 0 10 6 12 18 7 9 -4 36
-12 60 -17z m-48 -137 c44 -84 99 -148 137 -157 62 -16 128 37 178 141 52 108
91 134 56 36 -49 -133 -135 -221 -215 -221 -33 0 -109 54 -140 99 -32 45 -87
172 -80 183 10 15 23 -2 64 -81z m-2166 -53 c3 -13 6 -44 6 -70 0 -45 11 -61
25 -38 12 20 26 10 14 -11 -15 -29 -3 -37 64 -41 80 -4 77 -22 -5 -26 -68 -3
-83 -13 -56 -40 6 -6 9 -15 5 -19 -4 -4 -13 -1 -19 5 -24 24 -33 11 -36 -55
-1 -37 -5 -69 -7 -72 -11 -10 -17 11 -22 73 -3 36 -8 66 -10 66 -2 0 -15 -7
-28 -16 -31 -20 -32 -8 -4 22 l22 23 -24 5 c-13 3 -46 7 -74 8 -73 4 -61 23
18 26 49 2 67 7 67 17 0 8 -4 17 -10 20 -5 3 -10 11 -10 16 0 5 11 2 25 -7
l25 -16 0 60 c0 62 6 92 20 92 4 0 10 -10 14 -22z m2930 -84 c3 -9 6 -31 6
-50 0 -38 7 -41 36 -19 41 31 46 10 9 -40 l-26 -33 26 -26 c29 -29 33 -51 8
-41 -48 18 -51 16 -59 -41 -3 -30 -10 -54 -14 -54 -4 0 -11 25 -15 55 -6 51
-8 55 -28 49 -12 -3 -28 -11 -34 -16 -24 -19 -14 18 12 46 14 15 25 31 25 35
0 4 -11 18 -25 31 -23 21 -34 50 -19 50 3 0 19 -9 35 -20 l28 -21 7 26 c3 14
4 36 0 49 -8 34 16 52 28 20z m-2115 -83 c20 -27 21 -43 21 -238 1 -132 6
-232 14 -273 7 -36 66 -247 130 -468 66 -226 115 -411 111 -420 -5 -14 -9 -13
-20 9 -18 32 -253 845 -260 896 -7 52 -14 215 -14 351 -1 93 -4 112 -16 112
-13 0 -15 -27 -17 -177 0 -98 -3 -203 -4 -233 -5 -76 -277 -980 -296 -980 -19
0 -3 70 86 364 116 382 156 519 167 571 4 22 8 135 9 251 0 198 1 213 21 238
26 34 43 33 68 -3z m2930 3 c20 -25 21 -39 21 -240 l0 -213 49 -168 c188 -646
221 -765 221 -789 0 -70 -33 17 -111 290 -33 116 -82 283 -109 371 -81 267
-80 260 -80 498 0 175 -3 216 -14 220 -8 3 -17 3 -20 0 -3 -4 -6 -106 -6 -228
0 -248 7 -208 -110 -605 -26 -91 -69 -237 -95 -325 -64 -220 -65 -225 -76
-225 -12 0 -12 46 0 85 5 17 44 149 86 295 43 146 96 326 118 400 l40 135 4
240 c4 201 8 243 22 262 21 29 35 29 60 -3z m-1489 -304 c0 -10 -53 -126 -117
-257 -65 -131 -119 -241 -121 -245 -2 -5 114 -8 257 -8 144 0 261 2 261 5 0 2
-54 113 -120 245 -114 228 -134 280 -110 280 12 0 280 -539 280 -562 0 -13
-15 -17 -77 -22 -43 -2 -98 -5 -122 -5 -40 0 -60 -11 -61 -33 0 -5 23 -8 50
-8 l50 0 -2 -42 c-3 -43 -3 -43 35 -46 l37 -3 0 -287 c0 -158 -4 -292 -8 -298
-4 -6 -15 -13 -24 -17 -15 -5 -18 -29 -20 -229 -2 -123 -2 -225 -1 -227 2 -2
61 -6 133 -9 96 -3 130 -8 130 -17 0 -10 -35 -14 -139 -17 -77 -1 -143 -7
-147 -11 -5 -4 -2 -18 6 -30 7 -12 17 -39 20 -59 l7 -38 -58 0 -59 0 0 -54 c0
-52 -1 -55 -30 -61 -16 -4 -43 -4 -60 0 -29 6 -30 9 -30 61 l0 54 -75 0 -75 0
0 -75 0 -75 212 0 211 0 -6 110 c-4 60 -4 116 -1 125 5 12 27 15 113 15 l108
0 6 -697 c3 -384 3 -710 0 -725 -3 -18 -12 -28 -23 -28 -15 0 -17 20 -23 205
-10 301 -40 458 -113 589 -40 72 -120 153 -195 197 l-68 41 -72 -43 c-105 -63
-161 -123 -213 -232 -65 -136 -86 -257 -93 -529 l-6 -218 -28 0 -29 0 0 720 0
720 114 0 115 0 3 -37 c4 -51 33 -58 41 -11 4 18 9 43 13 56 6 21 5 22 -72 22
-127 0 -214 11 -214 26 0 10 14 14 48 14 27 0 89 3 138 6 l89 7 -2 196 c-3
232 -7 257 -33 264 -19 5 -20 15 -20 301 l0 296 30 0 c30 0 30 0 30 58 0 32
-5 63 -12 70 -7 7 -41 12 -81 12 -68 0 -69 0 -63 24 10 40 267 556 277 556 5
0 9 -9 9 -20z m54 -133 c16 -34 60 -124 97 -199 l68 -138 -195 0 -195 0 7 22
c4 12 44 98 90 190 46 92 84 173 84 178 0 25 17 4 44 -53z m-2700 -9 c3 -13 6
-47 6 -77 l0 -53 25 16 c21 14 25 14 25 2 0 -8 -4 -18 -10 -21 -25 -15 -5 -25
53 -25 34 0 69 -5 77 -10 27 -18 -10 -31 -72 -26 -62 4 -70 -3 -47 -46 12 -22
14 -22 -36 -2 -11 5 -15 -8 -17 -67 -4 -97 -23 -102 -31 -8 -3 39 -8 74 -11
77 -3 3 -14 -3 -25 -12 -11 -10 -22 -13 -25 -8 -3 5 1 15 9 22 38 31 8 50 -82
50 -54 0 -71 13 -30 24 12 3 46 6 75 6 56 0 57 1 41 32 -16 30 0 36 21 8 l20
-25 0 36 c0 55 12 129 20 129 4 0 10 -10 14 -22z m3727 -49 c4 -32 7 -39 13
-26 13 28 38 22 30 -8 -6 -23 -4 -25 30 -25 20 0 36 -4 36 -10 0 -5 -6 -10
-14 -10 -8 0 -26 -4 -41 -10 -22 -8 -24 -13 -15 -30 11 -20 -3 -30 -15 -10
-13 21 -24 8 -31 -35 -8 -55 -24 -59 -24 -7 0 45 -8 56 -27 40 -7 -6 -17 -8
-21 -4 -4 4 2 14 12 22 21 15 13 21 -38 26 -16 2 -31 9 -34 16 -3 9 3 13 14
12 45 -5 55 0 49 20 -8 25 10 27 24 3 8 -14 11 -7 17 35 8 64 27 64 35 1z
m1592 -69 c84 -26 164 -96 203 -178 36 -74 37 -181 4 -257 -82 -191 -332 -248
-500 -115 -41 32 -100 137 -99 174 0 20 1 20 12 2 48 -76 137 -136 203 -136
40 0 122 28 157 54 15 11 42 49 59 83 27 55 30 70 25 121 -11 122 -90 210
-207 231 -43 8 -45 24 -5 32 53 12 82 9 148 -11z m-4095 -185 c28 -93 69 -235
92 -315 22 -80 43 -153 46 -162 5 -17 -9 -18 -195 -18 -111 0 -201 3 -201 7 0
23 203 680 206 667 1 -5 25 -85 52 -179z m2941 -8 c30 -100 71 -240 91 -312
20 -71 40 -140 44 -152 l7 -23 -199 0 -199 0 34 123 c19 67 54 190 78 272 24
83 52 178 62 212 10 35 20 63 23 63 3 0 29 -82 59 -183z m-2219 -181 c0 -8
-49 -101 -110 -207 -60 -106 -110 -196 -110 -201 0 -4 16 -8 35 -8 28 0 35 -4
35 -20 0 -17 -7 -20 -49 -20 -55 0 -65 11 -51 60 8 28 133 252 202 363 30 47
48 60 48 33z m133 -103 c167 -265 207 -353 158 -353 -10 0 -33 -3 -50 -6 -27
-6 -31 -4 -31 15 0 17 6 21 36 21 28 0 35 3 30 15 -3 8 -52 93 -109 187 -126
210 -129 216 -122 228 3 6 8 10 10 10 2 0 37 -53 78 -117z m1138 -118 c-61
-102 -111 -190 -111 -195 0 -6 14 -10 30 -10 24 0 30 -4 30 -21 0 -15 -4 -19
-16 -15 -9 3 -31 6 -50 6 -30 0 -34 3 -34 26 0 14 23 64 52 112 118 198 155
259 179 294 23 36 24 37 27 13 2 -18 -30 -81 -107 -210z m190 209 c20 -25 144
-239 190 -330 24 -47 39 -89 36 -98 -5 -12 -20 -16 -62 -16 -49 0 -55 2 -55
21 0 19 4 20 40 14 30 -5 40 -3 40 7 0 7 -49 99 -110 203 -60 105 -110 196
-110 203 0 17 15 15 31 -4z m-1414 -91 c56 -98 157 -258 167 -265 6 -4 9 -8 6
-8 -18 -1 -390 -5 -390 -3 0 0 34 58 76 128 41 70 83 143 92 161 8 19 17 34
18 34 2 0 15 -21 31 -47z m1413 -50 c112 -189 124 -208 132 -211 4 -2 8 -7 8
-10 0 -7 -371 -4 -378 3 -2 2 17 35 42 74 25 39 66 102 91 141 25 38 45 74 45
80 0 21 10 8 60 -77z m-1984 -308 c25 -49 27 -58 16 -88 -7 -18 -12 -48 -12
-65 0 -26 -4 -32 -20 -32 -20 0 -21 4 -14 59 6 54 5 59 -15 66 -34 10 -41 -2
-41 -75 0 -68 0 -68 30 -75 30 -7 33 -13 33 -70 0 -8 -1 -91 -2 -185 l-1 -170
-215 0 -214 0 -3 198 c-2 108 -5 204 -8 212 -4 11 3 16 23 18 27 3 27 5 27 72
0 60 -3 69 -20 75 -33 11 -40 -2 -33 -65 5 -57 5 -60 -16 -60 -18 0 -21 6 -21
43 0 23 -6 54 -14 68 -11 22 -10 31 10 77 l23 52 230 0 229 0 28 -55z m2934 8
c14 -31 19 -58 16 -78 -4 -16 -9 -49 -12 -72 -5 -34 -11 -43 -27 -43 -18 0
-19 5 -14 59 6 57 6 59 -20 66 -14 3 -29 2 -32 -3 -3 -6 -5 -39 -3 -75 3 -62
5 -66 29 -69 l25 -3 -1 -210 c-1 -115 -4 -211 -6 -214 -6 -6 -417 -1 -427 5
-4 3 -8 97 -8 210 l0 205 30 6 c30 5 30 6 30 74 0 59 -3 68 -20 74 -35 11 -43
-3 -36 -66 4 -46 3 -59 -8 -59 -16 0 -26 21 -26 56 0 14 -5 34 -11 46 -8 16
-5 31 18 79 l28 59 227 0 227 0 21 -47z m-2197 -52 l37 -1 0 -290 0 -290 -215
0 -215 0 0 289 c0 222 3 290 13 294 10 4 174 3 380 -2z m1403 -288 l2 -293
-209 0 -208 0 -3 290 -3 289 25 4 c14 2 108 3 210 3 l185 -1 1 -292z m1839
143 c10 -88 10 -88 29 -67 28 31 40 26 20 -9 -10 -16 -15 -33 -11 -36 6 -6 72
-12 150 -14 9 0 17 -7 17 -15 0 -12 -16 -15 -85 -15 -47 0 -85 -4 -85 -8 0 -5
7 -17 15 -28 25 -33 18 -48 -11 -25 -15 12 -31 21 -35 21 -5 0 -9 -38 -9 -85
0 -69 -3 -85 -15 -85 -12 0 -15 16 -15 85 0 47 -3 85 -6 85 -3 0 -20 -10 -36
-22 -17 -12 -29 -17 -27 -12 3 5 11 21 18 37 8 15 12 29 10 31 -2 3 -41 6 -87
8 -57 2 -82 7 -82 16 0 6 6 12 13 12 33 1 153 13 156 16 3 3 -3 20 -12 39 -19
41 -18 42 14 14 l24 -21 6 29 c4 15 7 54 8 86 2 91 24 68 36 -37z m-1015 -317
l0 -260 -269 3 c-148 2 -273 6 -277 10 -9 10 16 39 27 32 5 -3 9 6 9 20 l0 26
219 0 c136 0 222 -4 226 -10 3 -5 13 -10 21 -10 12 0 14 36 14 223 0 123 3
227 6 230 20 19 24 -28 24 -264z m-3460 39 l0 -213 237 0 238 0 3 -27 c2 -16
11 -30 23 -33 54 -17 -16 -24 -261 -25 l-270 -1 0 256 c0 220 2 255 15 255 13
0 15 -30 15 -212z m-500 111 c0 -86 3 -100 80 -328 44 -130 80 -245 80 -254 0
-9 -6 -17 -12 -17 -8 1 -44 94 -88 225 -41 124 -77 225 -80 225 -3 0 -18 -44
-33 -98 -75 -259 -109 -352 -128 -352 -10 0 -19 1 -19 3 0 2 24 77 54 168 101
308 106 329 106 428 0 84 1 91 20 91 19 0 20 -7 20 -91z m4481 -24 c5 -94 13
-130 52 -250 41 -124 97 -310 97 -321 0 -2 -9 -4 -20 -4 -11 0 -20 6 -20 14 0
18 -105 365 -124 409 -9 22 -15 27 -19 17 -3 -8 -38 -111 -79 -227 -42 -125
-78 -213 -85 -213 -20 0 -16 16 33 160 25 74 64 186 85 249 33 97 39 127 39
198 0 75 2 84 18 81 14 -3 18 -19 23 -113z m-2441 -101 c0 -147 -2 -165 -16
-160 -9 3 -60 6 -115 6 l-99 0 0 81 c0 71 2 80 18 77 13 -2 18 -15 20 -59 l3
-56 69 1 70 1 0 78 0 77 -90 0 c-83 0 -90 1 -90 20 0 19 7 20 90 20 l90 0 0
34 c0 33 6 39 43 45 4 0 7 -74 7 -165z m450 120 l0 -34 90 0 c81 0 90 -2 90
-19 0 -16 -11 -19 -90 -25 l-91 -8 3 -71 3 -72 70 0 70 0 3 58 c2 42 7 57 17
57 12 0 15 -17 15 -80 l0 -80 -110 0 -110 0 0 153 c0 85 3 156 6 160 15 14 34
-8 34 -39z m-2870 1 c0 -32 2 -35 19 -26 26 14 35 1 14 -21 -15 -17 -14 -18
20 -18 47 0 56 -17 15 -28 -26 -7 -32 -13 -30 -31 2 -18 -2 -22 -15 -17 -20 8
-33 -10 -33 -47 0 -16 -4 -26 -10 -22 -5 3 -10 22 -10 41 0 36 -8 42 -28 22
-6 -6 -14 -9 -17 -6 -3 3 2 13 11 23 15 14 15 18 3 26 -8 5 -26 9 -41 9 -43 0
-41 17 2 24 42 7 48 14 28 34 -6 6 -9 15 -5 19 4 4 13 1 19 -5 20 -20 28 -14
28 23 0 24 5 35 15 35 11 0 15 -11 15 -35z m1680 -245 l0 -100 -37 -1 c-21 0
-58 -3 -82 -6 -23 -3 -72 -2 -107 2 l-64 7 0 94 0 93 138 4 c75 1 140 4 145 5
4 1 7 -43 7 -98z m2112 43 c3 -32 3 -76 0 -99 -4 -37 -8 -43 -34 -48 -17 -3
-68 -3 -114 1 l-84 6 0 83 c0 46 -1 87 -2 92 -2 4 47 9 107 13 61 3 113 6 116
7 4 1 9 -24 11 -55z m-3341 -316 c10 -33 19 -63 19 -68 0 -5 -47 -9 -105 -9
-58 0 -105 2 -105 4 0 3 18 58 39 123 21 65 44 138 51 163 l12 44 35 -99 c19
-55 43 -126 54 -158z m4398 206 c6 -21 26 -87 46 -148 19 -60 35 -116 35 -122
0 -10 -27 -13 -105 -13 -64 0 -105 4 -105 10 0 6 23 71 50 146 28 75 50 142
50 150 0 28 20 13 29 -23z m-2699 -728 l0 -735 -337 2 -338 3 -3 108 c-2 98
-4 107 -22 107 -18 0 -20 -9 -22 -106 l-3 -107 -235 -1 c-129 -1 -243 0 -252
2 -17 4 -18 30 -18 373 l0 369 255 0 255 0 0 -230 c0 -223 1 -230 20 -230 19
0 20 7 20 250 0 138 -4 250 -8 250 -4 0 -9 16 -10 36 -2 20 -9 71 -17 113 -8
42 -15 78 -15 80 0 2 144 0 319 -4 l319 -7 -5 163 c-2 90 -6 170 -8 176 -8 24
-69 53 -113 53 -37 0 -50 -6 -78 -34 l-34 -34 0 -141 0 -141 -200 0 -200 0 0
145 c0 121 2 145 15 145 12 0 15 -22 17 -117 l3 -117 133 -2 132 -1 0 183 0
184 215 0 215 0 0 -735z m1370 561 c0 -127 3 -176 13 -183 6 -6 56 -11 110
-12 l97 -2 0 120 c0 104 2 120 15 115 13 -5 15 -28 13 -143 l-3 -136 -166 -3
-166 -2 -6 137 c-3 76 -8 145 -11 153 -11 26 -74 62 -109 62 -19 0 -48 -7 -65
-16 -58 -30 -62 -45 -62 -219 l0 -158 284 3 c156 2 287 0 291 -4 10 -9 -16
-211 -27 -219 -5 -3 -6 -41 -2 -83 6 -63 10 -76 23 -74 12 2 17 17 19 61 l3
57 250 0 249 0 -2 -372 -3 -373 -225 -3 c-124 -1 -235 0 -247 3 l-23 5 0 269
c0 221 -2 270 -14 274 -8 3 -17 3 -20 0 -3 -4 -6 -129 -6 -280 l0 -273 -315 0
-315 1 -2 257 c-1 141 -1 460 0 707 1 248 2 462 2 478 l0 27 210 0 210 0 0
-174z m-1537 49 c27 -24 27 -24 27 -160 l0 -135 -75 0 -75 0 0 134 0 134 31
26 c38 32 56 32 92 1z m1363 3 c36 -25 42 -55 40 -208 l-1 -85 -77 -3 -78 -3
0 134 c0 138 4 153 45 175 28 16 35 15 71 -10z m-1965 -198 c3 -102 11 -212
18 -245 6 -33 13 -72 16 -87 l5 -28 -250 0 -250 0 0 273 0 272 228 0 227 0 6
-185z m2889 -87 l0 -273 -245 0 c-227 0 -245 1 -245 18 0 9 7 62 15 117 8 55
15 168 15 251 0 83 2 153 4 155 2 2 106 4 230 4 l226 0 0 -272z m-3390 52 l0
-215 -172 0 -173 0 3 80 c3 63 7 80 19 80 12 0 14 -12 11 -62 l-3 -63 140 0
140 0 0 198 c0 181 1 197 18 197 16 0 17 -17 17 -215z m3470 15 l0 -199 145 2
145 2 0 63 c0 48 3 62 15 62 12 0 15 -16 15 -80 l0 -80 -180 0 -180 0 0 215
c0 208 1 215 20 215 19 0 20 -7 20 -200z m-2675 100 l0 -85 -52 -3 c-50 -3
-53 -2 -53 21 0 13 -3 51 -6 85 l-7 61 34 4 c85 11 84 12 84 -83z m2015 -3 l0
-88 -57 3 -58 3 -3 82 -3 82 28 4 c15 2 43 4 61 4 l32 -1 0 -89z m-3117 -101
c3 -8 3 -17 0 -20 -4 -3 -105 -6 -225 -6 -211 0 -218 1 -218 20 0 19 7 20 219
20 179 0 220 -3 224 -14z m4495 -8 c3 -17 -13 -18 -222 -18 -220 0 -226 1
-226 20 0 20 5 20 222 18 203 -3 223 -5 226 -20z m-4901 -610 c-3 -302 -8
-553 -12 -556 -21 -21 -25 69 -25 565 0 546 1 564 34 545 4 -2 6 -252 3 -554z
m329 305 c-10 -454 -16 -543 -35 -545 -9 -1 -69 -3 -133 -3 l-118 0 0 403 0
402 146 0 146 0 -6 -257z m4494 -142 l0 -399 -51 -4 c-28 -1 -88 -1 -134 0
l-83 4 -6 161 c-3 89 -9 269 -12 400 l-6 237 146 0 146 0 0 -399z m78 -150
c-2 -302 -7 -553 -11 -557 -4 -5 -12 -2 -17 6 -11 16 -14 1058 -4 1084 3 9 13
16 20 16 12 0 14 -81 12 -549z m-4486 301 c2 -21 9 -28 31 -30 27 -3 30 0 41
48 4 21 11 25 46 26 39 2 40 1 40 -32 0 -32 2 -34 35 -34 31 0 36 4 41 29 4
20 13 30 30 34 32 6 34 2 34 -60 l0 -53 -170 0 -170 0 0 53 c0 30 3 57 7 60
11 11 32 -13 35 -41z m3798 2 c0 -32 2 -34 28 -28 40 10 42 12 42 46 0 23 4
29 16 24 9 -3 28 -6 44 -6 25 0 29 -4 32 -32 3 -30 6 -33 38 -33 33 0 35 2 32
31 -3 27 1 32 22 36 26 5 26 4 26 -53 l0 -59 -176 0 -176 0 6 31 c3 17 6 42 6
55 0 13 7 24 18 26 30 7 42 -3 42 -38z m-1632 -81 c35 -35 67 -63 72 -63 4 0
13 7 20 15 18 22 24 19 39 -17 56 -140 81 -308 81 -547 0 -105 -2 -191 -4
-191 -2 0 -11 3 -20 6 -14 5 -16 32 -16 198 0 207 -12 294 -52 373 -29 58 -65
88 -156 130 l-73 34 -52 -17 c-120 -38 -189 -109 -227 -232 -17 -54 -20 -94
-21 -261 0 -205 -4 -236 -28 -222 -22 14 -9 461 17 566 20 84 60 195 69 195 2
0 13 -10 24 -22 l19 -23 48 52 c26 28 67 68 90 87 l44 36 31 -17 c18 -10 60
-46 95 -80z m-1870 -380 l-3 -348 -40 0 -40 0 -3 162 -2 161 -36 31 c-46 41
-85 41 -125 2 l-29 -29 0 -201 0 -201 -24 0 c-53 0 -56 5 -56 106 0 87 -1 94
-20 94 -19 0 -20 -7 -20 -100 l0 -100 -135 0 -135 0 0 146 0 146 154 -3 153
-4 7 155 c3 85 6 191 6 236 0 44 3 84 7 87 3 4 82 7 175 7 l168 0 -2 -347z
m3795 225 c4 -66 7 -176 7 -244 0 -121 8 -150 33 -125 7 7 60 11 144 11 l133
0 0 -145 0 -145 -130 0 -129 0 -3 97 c-3 84 -6 98 -20 101 -16 3 -18 -6 -18
-92 0 -52 -3 -97 -7 -99 -5 -3 -23 -2 -40 0 l-33 5 0 191 0 191 -32 33 c-39
41 -78 43 -125 7 l-33 -25 0 -167 0 -167 -53 0 -52 0 -3 348 -2 347 178 0 179
0 6 -122z m-2063 18 c0 -19 -7 -26 -32 -31 -18 -4 -51 -27 -77 -54 -67 -67
-81 -120 -81 -303 0 -189 -8 -268 -28 -268 -22 0 -12 411 12 487 24 76 71 133
136 165 68 34 70 34 70 4z m131 -18 c108 -73 125 -129 135 -428 5 -176 -1
-229 -23 -206 -4 4 -9 101 -10 214 -1 185 -4 213 -23 264 -22 61 -91 133 -137
144 -13 4 -23 10 -23 14 0 5 -3 15 -6 24 -11 28 21 18 87 -26z m-131 -313 l0
-265 -75 0 -75 0 0 168 c0 181 11 245 52 297 20 26 74 65 91 65 4 0 7 -119 7
-265z m91 242 c40 -27 75 -76 89 -126 5 -20 10 -114 10 -208 l0 -173 -69 0
c-54 0 -70 4 -75 16 -9 24 -7 514 3 514 4 0 23 -10 42 -23z m3019 4 c0 -5 -19
-21 -42 -37 -93 -65 -141 -184 -155 -385 l-7 -104 -13 50 c-8 31 -12 86 -10
145 4 120 30 190 97 264 62 67 130 102 130 67z m-6091 -5 c66 -35 132 -134
155 -234 l13 -57 6 64 c4 35 9 66 11 68 7 7 79 -43 107 -73 78 -85 158 -238
159 -301 0 -47 -26 -43 -34 5 -13 71 -116 254 -177 313 l-26 26 -13 -71 c-33
-194 -100 -365 -77 -198 24 175 -13 305 -114 402 -30 27 -57 50 -61 50 -4 0
-8 5 -8 10 0 14 26 12 59 -4z m376 -7 c4 -5 18 -14 32 -20 31 -12 24 -34 -10
-34 -31 1 -32 4 19 -126 41 -103 49 -141 37 -164 -8 -13 -19 7 -53 92 -40 101
-63 206 -52 245 5 20 18 23 27 7z m5405 -194 c0 -59 33 -225 59 -300 24 -69
24 -65 11 -65 -17 0 -59 85 -75 154 -9 37 -16 99 -16 136 l0 68 -39 -19 c-21
-10 -53 -36 -72 -58 -40 -47 -102 -170 -119 -234 -14 -58 -39 -64 -39 -9 0 48
54 160 111 231 40 50 150 141 170 141 5 0 9 -20 9 -45z m-5519 -168 c-12 -19
-11 -23 15 -44 16 -13 32 -23 36 -23 10 0 48 -65 58 -100 13 -47 -6 -45 -39 4
-34 49 -59 76 -70 76 -4 0 -17 -20 -28 -45 l-21 -45 33 6 c39 7 59 -20 22 -30
-26 -7 -107 -8 -107 -1 0 2 17 39 37 82 27 55 38 93 39 128 1 28 2 64 3 80 3
28 4 26 19 -18 13 -41 14 -52 3 -70z m4669 -48 c0 -124 -3 -160 -12 -157 -18
6 -24 238 -7 249 21 12 1 39 -28 39 l-28 0 4 -136 c2 -84 -1 -140 -7 -146 -16
-16 -23 59 -20 194 l3 118 48 0 47 0 0 -161z m-3132 -149 c2 -13 -31 -15 -258
-12 -222 2 -260 5 -260 17 0 23 513 18 518 -5z m1983 -399 l27 -1 -40 -77 -39
-78 4 -387 4 -388 -699 0 -698 0 0 394 0 395 -38 73 -38 73 746 -2 c410 -1
757 -2 771 -2z m8 -1000 c43 -28 54 -30 186 -36 134 -7 142 -9 200 -41 l60
-34 -1175 0 -1175 0 51 30 c62 35 73 38 198 44 83 5 106 10 136 30 20 13 45
26 56 29 10 2 334 5 718 6 l699 1 46 -29z m579 -174 c19 -10 32 -21 29 -23 -8
-8 -2687 -14 -2687 -5 0 4 19 17 43 29 l42 22 1270 -3 c1208 -2 1272 -3 1303
-20z"/>
<path d="M4880 9207 c-57 -18 -125 -94 -140 -155 -36 -150 64 -263 234 -264
65 -1 114 20 163 69 106 106 63 287 -81 347 -39 16 -129 18 -176 3z m133 -38
c52 -12 123 -74 134 -116 10 -40 -3 -123 -24 -151 -28 -40 -99 -72 -155 -72
-167 0 -253 160 -151 281 28 33 83 63 124 67 13 1 45 -3 72 -9z"/>
<path d="M4858 5834 c-53 -28 -60 -59 -56 -240 l3 -164 98 0 97 0 0 178 0 178
-31 32 c-35 35 -67 40 -111 16z m102 -243 c0 -66 -4 -122 -9 -125 -5 -3 -30
-3 -55 0 l-46 7 0 118 0 119 55 0 55 0 0 -119z"/>
<path d="M4863 5296 l-28 -24 0 -157 0 -157 74 -1 75 -2 -3 150 c-3 153 -12
196 -46 209 -28 10 -43 7 -72 -18z"/>
<path d="M3348 5261 c-33 -29 -33 -31 -36 -129 l-4 -100 74 -7 c78 -7 119 -5
118 8 0 4 0 50 0 103 0 92 -1 97 -29 125 -39 39 -80 39 -123 0z"/>
<path d="M6282 5274 c-39 -27 -52 -67 -52 -158 0 -100 -2 -99 120 -94 l75 3
-3 90 c-4 107 -15 141 -53 160 -36 19 -59 19 -87 -1z"/>
<path d="M4163 5346 c-26 -23 -27 -28 -34 -147 -3 -68 -5 -126 -2 -128 7 -9
185 -13 193 -5 5 5 6 60 3 123 -6 108 -8 116 -36 147 -36 42 -82 46 -124 10z"/>
<path d="M5528 5350 c-40 -31 -49 -66 -46 -180 l3 -105 98 -3 97 -3 -1 113
c-1 73 -7 123 -15 140 -29 57 -90 74 -136 38z"/>
<path d="M4100 4351 c0 -95 -6 -91 136 -91 l124 0 0 75 0 75 -130 0 -130 0 0
-59z"/>
<path d="M3379 4015 c-51 -27 -59 -54 -59 -185 l0 -121 113 3 112 3 3 119 c3
134 -5 157 -63 182 -43 17 -73 17 -106 -1z m92 -42 c34 -20 41 -49 37 -148
l-3 -70 -72 -3 -73 -3 0 93 c1 95 7 114 45 136 27 15 32 15 66 -5z"/>
<path d="M5450 4335 l0 -76 128 3 127 3 0 70 0 70 -127 3 -128 3 0 -76z"/>
<path d="M6254 4014 c-46 -22 -54 -51 -54 -185 l0 -120 113 3 112 3 2 114 c0
63 -3 124 -9 136 -12 27 -77 65 -109 65 -13 0 -38 -7 -55 -16z m97 -45 c29
-20 29 -21 29 -120 l0 -99 -70 0 -70 0 0 95 c0 88 2 98 25 120 29 30 48 31 86
4z"/>
<path d="M3383 4620 c-18 -10 -37 -28 -42 -39 -6 -11 -11 -74 -11 -140 l0
-121 95 0 95 0 0 128 c0 127 0 129 -27 154 -39 36 -72 41 -110 18z"/>
<path d="M6261 4604 l-31 -26 0 -129 0 -129 96 0 96 0 -4 131 c-3 129 -3 131
-31 155 -38 32 -86 32 -126 -2z"/>
<path d="M2582 4460 c-18 -17 -22 -32 -22 -84 0 -35 -3 -78 -6 -95 l-6 -31 83
0 84 0 -3 92 c-3 84 -5 95 -28 116 -31 27 -73 28 -102 2z"/>
<path d="M2579 4071 c-25 -26 -29 -37 -29 -88 0 -32 -3 -68 -6 -80 -6 -23 -5
-23 80 -23 l86 0 0 29 c0 15 -3 56 -7 91 -5 56 -9 64 -37 81 -42 25 -52 24
-87 -10z"/>
<path d="M7083 4458 c-17 -18 -22 -42 -28 -115 l-7 -93 84 0 84 0 -4 88 c-4
104 -21 135 -73 140 -26 2 -40 -3 -56 -20z"/>
<path d="M7085 4074 c-20 -21 -24 -38 -27 -106 -2 -44 -1 -82 1 -84 2 -2 40
-4 83 -4 l78 0 -6 63 c-10 115 -13 126 -44 142 -41 21 -57 19 -85 -11z"/>
<path d="M2943 4100 c-23 -9 -38 -68 -31 -126 3 -29 4 -29 71 -32 l67 -3 0 69
c0 46 -5 73 -13 81 -20 16 -69 22 -94 11z"/>
<path d="M6738 4094 c-26 -14 -28 -19 -28 -84 l0 -70 65 0 c59 0 65 2 70 23 4
18 2 94 -4 118 -1 8 -49 29 -64 29 -7 -1 -24 -8 -39 -16z"/>
<path d="M1735 1685 c-53 -18 -79 -50 -214 -259 l-114 -176 -51 -1 c-28 0
-345 0 -703 1 l-653 1 0 -24 0 -25 653 0 c358 -1 670 -1 691 -2 36 0 38 -1 24
-17 -20 -24 -201 -309 -245 -386 -31 -54 -35 -70 -34 -122 1 -53 5 -63 31 -87
l30 -28 3813 0 3812 0 28 23 c23 18 29 32 34 78 7 67 7 67 -158 342 -66 109
-119 200 -119 202 0 3 107 5 238 5 l238 0 22 -30 c13 -16 28 -30 34 -30 37 0
181 -87 258 -155 138 -123 270 -173 480 -180 169 -6 268 25 320 102 50 72 23
245 -56 370 -92 145 -246 236 -456 267 -72 11 -105 11 -189 0 -126 -16 -154
-26 -228 -75 l-59 -39 -42 15 c-103 36 -376 65 -622 65 l-138 0 -20 41 c-30
58 -100 124 -139 132 -19 4 -1472 7 -3230 7 -2718 -1 -3202 -3 -3236 -15z
m1532 -29 c7 -6 -35 -120 -43 -116 -5 3 -8 9 -6 13 1 5 5 29 9 54 5 41 4 45
-13 40 -10 -3 -86 -9 -168 -13 -118 -5 -150 -4 -156 6 -14 23 -37 -6 -55 -65
-15 -53 -30 -74 -43 -60 -7 7 36 137 49 145 7 5 421 1 426 -4z m3983 -8 c5
-13 28 -66 51 -118 114 -261 158 -391 102 -299 -33 53 -223 423 -223 434 0 3
14 5 30 5 22 0 33 -6 40 -22z m-5010 3 c0 -17 -32 -21 -164 -21 -81 0 -136 4
-143 11 -8 8 -34 -28 -92 -126 -44 -75 -81 -145 -81 -156 0 -18 9 -19 166 -19
107 0 163 -3 159 -10 -4 -6 -73 -10 -175 -10 l-170 0 -45 -67 c-44 -66 -58
-113 -32 -113 6 0 0 -8 -16 -18 -15 -9 -42 -41 -61 -71 -32 -51 -33 -55 -21
-95 l12 -41 987 0 986 0 0 -57 0 -58 1194 0 1194 0 -5 58 -5 57 792 0 c435 0
796 3 802 6 28 17 -14 153 -63 205 l-20 22 25 6 c32 8 33 28 6 96 -11 27 -16
50 -12 50 23 0 49 -40 128 -200 48 -96 92 -178 98 -182 6 -4 149 -8 318 -8
268 0 309 2 323 16 10 10 13 24 9 37 -7 21 -106 204 -224 412 -34 61 -80 143
-102 182 -22 40 -43 75 -46 77 -4 2 -29 2 -55 -1 -46 -6 -48 -7 -42 -32 3 -14
80 -159 170 -321 90 -162 167 -303 171 -313 5 -15 -1 -17 -59 -17 l-64 0 -17
43 c-8 23 -32 66 -51 95 -19 30 -35 56 -35 58 0 2 9 4 20 4 32 0 25 37 -21
115 -22 39 -77 135 -121 215 -44 80 -87 153 -96 163 -14 16 -4 17 204 17 249
0 260 -3 310 -82 90 -142 504 -826 504 -833 0 -3 -1719 -5 -3820 -5 l-3819 0
68 113 c85 139 245 391 385 605 70 107 117 169 139 182 29 18 51 20 270 20
132 0 237 -4 237 -9z m4344 0 c9 -14 -122 -24 -216 -17 -82 7 -114 0 -106 -24
3 -9 48 -11 171 -11 l167 2 0 -26 0 -25 -164 0 -163 0 -20 55 -21 55 174 0
c95 0 175 -4 178 -9z m587 -78 l8 -23 -183 0 c-173 0 -184 1 -189 19 -3 11 -2
22 1 26 3 3 84 4 180 3 171 -3 175 -3 183 -25z m833 -96 c38 -67 83 -144 99
-171 66 -112 189 -358 176 -354 -7 2 -51 72 -97 154 -129 230 -262 476 -262
486 0 25 22 -5 84 -115z m1731 12 c112 -34 184 -76 256 -148 124 -125 153
-250 77 -337 -54 -61 -79 -69 -208 -68 -94 1 -126 5 -173 23 -77 30 -106 56
-186 170 -38 53 -82 108 -97 123 -29 27 -126 75 -167 82 -12 3 -23 5 -25 5 -1
1 13 14 31 31 61 53 175 104 246 110 67 5 93 25 44 34 -15 2 8 3 52 1 44 -2
112 -14 150 -26z m-1890 -80 l47 -91 -222 3 -222 4 -40 79 c-21 43 -37 80 -35
82 13 13 38 -15 58 -64 12 -31 27 -63 32 -69 7 -10 60 -13 203 -13 l193 0 -37
73 c-20 39 -38 75 -40 80 -2 4 1 7 6 7 6 0 31 -41 57 -91z m-5545 76 c0 -3
-14 -33 -30 -66 -17 -33 -28 -64 -25 -69 4 -6 87 -10 200 -10 l193 0 24 72
c13 39 30 74 37 76 15 5 11 -11 -22 -99 -21 -55 -22 -57 -65 -63 -25 -3 -129
-6 -232 -6 l-187 0 40 85 c23 47 47 85 54 85 7 0 13 -2 13 -5z m495 -12 c-29
-73 -37 -102 -32 -117 6 -14 30 -16 207 -16 127 0 200 -4 200 -10 0 -6 -74
-10 -201 -10 -122 0 -208 -4 -220 -11 -25 -13 -83 -133 -75 -154 5 -13 37 -15
222 -15 120 0 214 -3 211 -7 -4 -4 -97 -6 -207 -5 -110 1 -210 -2 -224 -7 -27
-11 -66 -84 -66 -124 l0 -27 215 0 215 0 6 28 c12 56 26 92 35 92 12 0 12 -6
-10 -75 l-19 -60 -256 -3 c-141 -1 -256 0 -256 3 0 3 6 16 14 28 8 12 29 58
46 102 17 44 46 112 65 150 18 39 48 108 65 155 18 47 37 88 44 92 19 13 28 9
21 -9z m505 10 c0 -5 -7 -30 -15 -57 -28 -92 -42 -86 190 -86 130 0 205 -4
205 -10 0 -6 -76 -10 -209 -10 -155 0 -211 -3 -219 -12 -12 -16 -41 -104 -44
-138 l-3 -25 215 -5 c189 -5 200 -6 95 -10 -66 -2 -156 -3 -200 -1 -111 3
-127 -5 -148 -71 -29 -94 -49 -87 226 -90 133 -2 243 -2 245 -2 3 2 20 71 42
169 5 22 26 110 47 195 31 126 42 156 57 158 17 4 18 0 11 -29 -18 -82 -22
-109 -17 -114 3 -3 97 -5 209 -5 l203 0 0 69 c0 39 5 73 10 76 18 11 22 -23
10 -95 l-12 -70 -206 0 c-114 0 -213 -4 -220 -9 -15 -9 -45 -138 -38 -158 4
-10 55 -13 226 -13 122 0 219 -4 216 -9 -3 -4 -105 -9 -227 -9 -123 -1 -226
-5 -231 -10 -9 -9 -31 -132 -25 -139 2 -2 116 -4 253 -5 l249 0 13 88 c51 362
65 434 84 434 14 0 17 -5 13 -22 -2 -13 -6 -45 -7 -73 l-3 -50 212 -3 212 -2
-6 70 c-6 66 -5 70 15 70 18 0 21 -8 27 -67 4 -38 12 -74 17 -80 13 -16 30
-15 -242 -13 -118 1 -223 -2 -232 -5 -26 -10 -43 -131 -25 -169 7 -14 5 -21
-7 -28 -12 -7 -16 -25 -16 -81 l0 -72 220 3 c153 3 220 0 220 -7 0 -8 -230
-11 -795 -11 -437 0 -795 3 -795 6 0 10 50 174 71 231 10 29 30 92 43 140 33
117 53 163 71 163 8 0 15 -3 15 -7z m3447 -63 c13 -36 42 -113 65 -172 l41
-108 291 -3 c160 -1 53 -2 -239 -2 -291 0 -434 1 -317 2 242 4 227 -4 192 97
-11 32 -18 63 -17 69 1 9 -56 13 -215 15 -134 1 -218 6 -218 12 0 6 76 10 200
10 110 0 200 4 200 9 0 5 -6 24 -14 42 -7 19 -17 49 -21 67 -6 29 -4 33 11 30
11 -2 26 -26 41 -68z m-4597 55 c0 -2 -12 -25 -27 -50 l-28 -45 -144 0 -143 0
16 23 c9 12 21 32 28 44 6 12 20 24 32 26 30 6 266 8 266 2z m490 -5 c0 -5 -7
-28 -16 -50 l-16 -40 -154 0 c-85 0 -154 4 -154 8 0 4 14 27 31 50 l31 42 139
0 c84 0 139 -4 139 -10z m495 -22 c-15 -73 -1 -68 -171 -68 -100 0 -154 4
-154 10 0 6 9 29 20 50 l20 40 146 0 146 0 -7 -32z m515 13 c0 -10 -5 -32 -11
-50 l-11 -31 -155 0 c-142 0 -154 1 -149 18 3 9 8 29 11 44 8 33 16 35 183 37
122 1 132 0 132 -18z m500 -15 c0 -68 4 -66 -171 -66 -87 0 -159 1 -159 3 0 2
7 24 16 50 l16 47 149 0 149 0 0 -34z m520 -16 l0 -50 -165 0 c-183 0 -173 -4
-159 69 l7 31 158 0 159 0 0 -50z m486 38 c3 -4 7 -24 8 -45 l1 -38 -182 -3
-183 -2 0 51 0 51 174 -4 c96 -2 178 -6 182 -10z m518 -19 c14 -73 24 -69
-154 -69 l-160 0 0 50 0 50 154 0 154 0 6 -31z m85 -6 c6 -21 11 -45 11 -53 0
-8 6 -27 14 -42 11 -21 11 -28 2 -31 -10 -4 -7 -23 10 -79 13 -40 28 -80 33
-89 6 -11 6 -20 -2 -28 -8 -8 -8 -17 0 -33 7 -13 17 -45 23 -73 l11 -50 237 3
c130 2 239 5 240 7 2 2 -6 39 -18 82 -42 151 -60 226 -55 231 14 14 33 -14 53
-77 13 -39 29 -71 35 -71 7 0 4 -5 -6 -11 -13 -8 -15 -14 -7 -28 5 -11 20 -49
34 -85 l24 -66 -842 0 -841 0 3 89 3 88 -194 -5 c-132 -3 -200 -1 -213 6 -14
9 34 11 194 12 l212 0 0 81 c0 71 2 80 18 77 14 -3 18 -17 23 -76 3 -44 11
-77 18 -82 11 -6 10 -9 -2 -16 -12 -7 -14 -24 -10 -84 l5 -75 249 0 249 0 -5
60 c-4 33 -10 80 -15 105 -5 25 -11 73 -14 108 -5 56 -4 63 11 60 12 -2 21
-26 35 -88 11 -53 14 -86 8 -88 -6 -2 -6 -10 -1 -20 5 -9 12 -37 16 -62 3 -25
8 -52 11 -60 3 -13 40 -15 250 -15 l246 0 -6 40 c-3 22 -18 102 -33 178 l-28
137 -217 0 c-139 0 -218 4 -218 10 0 6 78 10 215 10 118 0 215 3 215 8 0 4 -4
23 -9 42 -23 88 -23 90 -2 90 15 0 23 -10 30 -37z m405 1 c4 -19 10 -42 13
-50 4 -12 -23 -14 -175 -14 l-181 0 -10 38 c-19 65 -28 62 168 62 l179 0 6
-36z m490 -11 c9 -26 16 -48 16 -50 0 -2 -79 -3 -175 -3 l-175 0 -10 25 c-5
14 -13 37 -16 50 l-6 25 175 0 175 0 16 -47z m594 2 c12 -25 22 -48 22 -50 0
-3 -87 -5 -194 -5 l-194 0 -16 40 c-9 22 -16 45 -16 50 0 6 72 10 188 10 l188
0 22 -45z m509 -5 l32 -50 -147 0 -147 0 -17 43 c-10 23 -18 46 -18 50 0 4 60
7 133 7 l132 0 32 -50z m1054 30 c188 -18 332 -45 312 -58 -20 -14 -72 -94
-78 -123 l-7 -29 -254 0 -254 0 -34 53 c-18 28 -48 78 -66 110 l-32 57 155 0
c85 0 201 -5 258 -10z m-6761 -176 c0 -4 -12 -28 -27 -55 l-26 -49 -144 0
c-78 0 -143 3 -143 6 0 4 12 26 27 50 l28 43 105 4 c58 1 122 4 143 5 20 1 37
-1 37 -4z m75 -11 c-40 -95 -43 -119 -12 -127 12 -3 117 -6 234 -6 l212 0 19
53 c11 28 23 62 26 75 4 12 12 22 18 22 15 0 1 -47 -31 -105 l-28 -50 -235 -5
c-163 -3 -239 -9 -250 -17 -22 -19 -61 -110 -55 -127 6 -14 36 -16 235 -16
l228 0 17 54 c10 30 24 59 32 66 12 10 12 4 -1 -41 -9 -29 -20 -63 -25 -76
l-9 -23 -455 0 c-317 0 -454 3 -450 11 5 6 64 9 170 8 89 -1 167 1 172 4 5 3
26 41 47 84 21 43 47 94 57 113 11 19 29 54 40 78 11 23 27 42 36 42 11 0 13
-5 8 -17z m422 9 l21 -2 -21 -50 -21 -51 -168 2 -168 1 26 48 27 49 81 3 c80
3 181 3 223 0z m1981 -2 l142 0 0 -50 0 -50 -181 0 -182 0 7 47 c7 51 20 66
51 58 11 -2 84 -5 163 -5z m654 -13 c4 -7 8 -29 8 -49 l0 -38 -189 0 -190 0
-6 44 c-4 25 -4 50 0 56 9 15 367 3 377 -13z m525 9 c2 -1 6 -24 9 -49 l7 -47
-195 0 -195 0 -7 31 c-3 17 -6 43 -6 57 l0 25 192 -7 c106 -4 194 -8 195 -10z
m390 7 l112 -6 16 -45 c8 -25 15 -47 15 -49 0 -2 -85 -3 -190 -3 l-189 0 -14
48 c-8 26 -13 50 -10 55 5 9 111 9 260 0z m479 0 l141 -6 13 -36 c7 -20 15
-42 17 -48 4 -10 -37 -13 -185 -13 l-190 0 -11 43 c-7 23 -15 48 -17 55 -7 14
24 15 232 5z m676 1 l75 -7 22 -44 c11 -24 21 -46 21 -48 0 -3 -108 -5 -240
-5 l-239 0 -16 30 c-8 16 -20 41 -25 55 l-10 25 169 0 c92 0 202 -3 243 -6z
m534 0 l81 -7 26 -44 c15 -24 27 -46 27 -48 0 -3 -74 -5 -163 -5 l-164 0 -26
49 c-15 27 -27 51 -27 55 0 8 142 8 246 0z m1491 -5 c59 -22 106 -66 190 -177
96 -127 138 -160 242 -192 164 -51 383 -2 410 92 l9 33 1 -40 c1 -22 -6 -51
-15 -63 -56 -81 -272 -103 -471 -48 -126 35 -179 64 -274 150 -49 45 -109 88
-150 108 -74 36 -81 50 -58 117 10 27 15 31 49 31 21 0 51 -5 67 -11z m-6201
-21 c-3 -13 -6 -35 -6 -50 l0 -28 -165 0 c-183 0 -179 -2 -154 69 l11 31 160
0 160 0 -6 -22z m519 -20 c-4 -24 -9 -46 -12 -50 -4 -8 -333 -12 -333 -5 0 2
7 24 16 50 l16 47 160 0 160 0 -7 -42z m531 20 c-3 -13 -6 -35 -6 -50 l0 -28
-165 0 -165 0 0 28 c0 15 3 37 6 50 6 22 9 22 171 22 l165 0 -6 -22z m2315
-225 l21 -68 498 3 c304 1 506 -1 521 -7 16 -7 -156 -9 -506 -8 l-530 2 -22
60 c-24 67 -27 85 -14 85 6 0 20 -30 32 -67z m-4491 50 c0 -5 -9 -22 -20 -40
l-19 -32 -151 -3 c-82 -2 -150 -2 -150 0 0 1 12 20 26 42 l27 40 143 0 c79 0
144 -3 144 -7z m530 -2 c0 -4 -5 -22 -11 -40 l-11 -31 -195 0 -194 0 22 40 23
40 183 0 c101 0 183 -4 183 -9z m534 0 c3 -5 3 -23 0 -40 l-6 -31 -174 0
c-115 0 -174 4 -174 10 0 6 7 24 15 40 l16 30 159 0 c87 0 161 -4 164 -9z
m606 -8 c0 -10 -3 -28 -6 -40 -6 -23 -7 -23 -210 -23 -158 0 -202 3 -199 13 2
6 9 24 14 40 l11 27 195 0 c179 0 195 -1 195 -17z m540 -23 l0 -40 -210 0
c-206 0 -210 0 -210 21 0 11 5 29 10 40 10 18 23 19 210 19 l200 0 0 -40z
m510 31 c0 -5 3 -23 6 -40 l7 -31 -197 0 -196 0 0 24 c0 57 -3 56 196 56 101
0 184 -4 184 -9z m544 -7 c3 -9 6 -27 6 -40 l0 -24 -205 0 -205 0 0 40 0 40
199 0 c172 0 200 -2 205 -16z m522 8 c6 -4 15 -22 19 -39 l7 -33 -205 0 c-204
0 -205 0 -211 23 -16 59 -24 57 187 57 105 0 197 -4 203 -8z m534 -18 c21 -55
26 -54 -185 -54 -107 0 -195 4 -195 9 0 5 -3 23 -6 40 l-6 31 191 0 191 0 10
-26z m1183 -9 c9 -20 17 -38 17 -40 0 -3 -220 -5 -488 -5 l-488 0 -12 33 c-7
18 -12 36 -12 40 0 4 217 7 483 7 l483 0 17 -35z m530 0 c9 -20 17 -38 17 -40
0 -3 -72 -5 -160 -5 l-160 0 -20 40 -20 40 163 0 163 0 17 -35z m-2106 -148
c1 -2 6 -18 9 -35 l7 -32 -1152 0 -1151 0 0 38 0 37 1142 -2 c628 -2 1143 -4
1145 -6z m2916 -247 c-1 -19 -9 -40 -19 -47 -15 -11 -721 -13 -3811 -13 -3780
0 -3793 0 -3813 20 -11 11 -20 33 -20 49 l0 28 3833 -1 3832 -1 -2 -35z"/>
<path d="M0 460 c0 -20 7 -20 5120 -20 5113 0 5120 0 5120 20 0 20 -7 20
-5120 20 -5113 0 -5120 0 -5120 -20z"/>
</g>
</svg>
